<svg width="306" height="306" viewBox="0 0 306 306" fill="none" xmlns="http://www.w3.org/2000/svg">
<path fill-rule="evenodd" clip-rule="evenodd" d="M0 153C0 68.4983 68.4983 0 153 0C237.502 0 306 68.4983 306 153C306 237.502 237.502 306 153 306C68.4983 306 0 237.502 0 153ZM153 20C79.544 20 20 79.544 20 153C20 226.456 79.544 286 153 286C226.456 286 286 226.456 286 153C286 79.544 226.456 20 153 20ZM153 57.2C158.523 57.2 163 61.6772 163 67.2V143.158L195.979 110.179C199.884 106.274 206.216 106.274 210.121 110.179C214.026 114.084 214.026 120.416 210.121 124.321L160.071 174.371C156.166 178.276 149.834 178.276 145.929 174.371L95.8789 124.321C91.9737 120.416 91.9737 114.084 95.8789 110.179C99.7842 106.274 106.116 106.274 110.021 110.179L143 143.158V67.2C143 61.6772 147.477 57.2 153 57.2ZM100.1 224.5C100.1 218.977 104.577 214.5 110.1 214.5H195.9C201.423 214.5 205.9 218.977 205.9 224.5C205.9 230.023 201.423 234.5 195.9 234.5H110.1C104.577 234.5 100.1 230.023 100.1 224.5Z" fill="#0D091A"/>
</svg>
